<svg width="450" height="260" viewBox="0 0 450 260" style="background-color: #f8fafc; border: 1px solid #e2e8f0; border-radius: 8px;">
      <!-- Root Folder -->
      <rect x="20" y="20" width="130" height="25" rx="3" fill="#1e293b" stroke="#0f172a" stroke-width="1.5"/>
      <text x="30" y="36" font-family="Consolas" font-size="10.5" font-weight="bold" fill="#ffffff">sentinel-pulse/</text>
      
      <!-- Folders -->
      <rect x="60" y="60" width="80" height="20" rx="2" fill="#dbeafe" stroke="#2563eb" stroke-width="1"/>
      <text x="70" y="74" font-family="Consolas" font-size="9.5" fill="#1e40af">app/</text>
      
      <rect x="100" y="90" width="90" height="20" rx="2" fill="#eff6ff" stroke="#3b82f6" stroke-width="1"/>
      <text x="110" y="104" font-family="Consolas" font-size="9.5" fill="#1e40af">blueprints/</text>
      
      <rect x="100" y="120" width="95" height="20" rx="2" fill="#eff6ff" stroke="#3b82f6" stroke-width="1"/>
      <text x="110" y="134" font-family="Consolas" font-size="9.5" fill="#1e40af">models/</text>
      
      <rect x="100" y="150" width="95" height="20" rx="2" fill="#eff6ff" stroke="#3b82f6" stroke-width="1"/>
      <text x="110" y="164" font-family="Consolas" font-size="9.5" fill="#1e40af">services/</text>
      
      <!-- Files -->
      <rect x="60" y="190" width="80" height="20" rx="2" fill="#f1f5f9" stroke="#64748b" stroke-width="1"/>
      <text x="70" y="204" font-family="Consolas" font-size="9.5" fill="#334155">run.py</text>
      
      <rect x="60" y="220" width="130" height="20" rx="2" fill="#f1f5f9" stroke="#64748b" stroke-width="1"/>
      <text x="70" y="234" font-family="Consolas" font-size="9.5" fill="#334155">requirements.txt</text>
      
      <!-- Connection Lines -->
      <line x1="30" y1="45" x2="30" y2="230" stroke="#94a3b8" stroke-dasharray="2,2"/>
      <line x1="30" y1="70" x2="60" y2="70" stroke="#94a3b8"/>
      <line x1="70" y1="80" x2="70" y2="160" stroke="#94a3b8" stroke-dasharray="2,2"/>
      <line x1="70" y1="100" x2="100" y2="100" stroke="#94a3b8"/>
      <line x1="70" y1="130" x2="100" y2="130" stroke="#94a3b8"/>
      <line x1="70" y1="160" x2="100" y2="160" stroke="#94a3b8"/>
      <line x1="30" y1="200" x2="60" y2="200" stroke="#94a3b8"/>
      <line x1="30" y1="230" x2="60" y2="230" stroke="#94a3b8"/>
    </svg>